<svg xmlns="http://www.w3.org/2000/svg" xml:space="preserve" id="svg2" width="215.427" height="40.467" version="1.1" viewBox="0 0 215.427 40.467"><g id="g10" transform="matrix(1.33333 0 0 -1.33333 0 40.467)"><g id="g12" transform="scale(.1)"><path id="path14" d="M18.934 302.441C8.477 302.441 0 293.965 0 283.504V19.387C0 8.926 8.477.449 18.934.449c10.46 0 18.937 8.477 18.937 18.938v264.117c0 10.461-8.477 18.937-18.937 18.937" style="fill:#4cd9ff;fill-opacity:1;fill-rule:nonzero;stroke:none"/><path id="path16" d="M276.695 119.637c0 .011.004.031.004.043 0 55.711-45.328 101.039-101.039 101.039-23.883 0-45.82-8.371-63.137-22.274v3.614c0 10.461-8.476 18.937-18.933 18.937-10.461 0-18.938-8.476-18.938-18.937v-81.414c-.004-.325-.046-.645-.046-.965 0-.168.042-.325.046-.492V19.387C74.652 8.926 83.13.449 93.59.449c10.457 0 18.933 8.477 18.933 18.938v101.258c.524 34.378 28.625 62.203 63.137 62.203 34.828 0 63.168-28.34 63.168-63.168 0-.336.078-.637.098-.961 0-.008-.004-.028-.004-.039V19.387c0-10.461 8.476-18.938 18.933-18.938 10.461 0 18.938 8.477 18.938 18.938v99.293c0 .332-.078.636-.098.957" style="fill:#4cd9ff;fill-opacity:1;fill-rule:nonzero;stroke:none"/><path id="path18" d="M519.512 220.652c-10.457 0-18.938-8.476-18.938-18.933V19.387c0-10.461 8.481-18.938 18.938-18.938 10.461 0 18.933 8.477 18.933 18.938v182.332c0 10.457-8.472 18.933-18.933 18.933" style="fill:#4cd9ff;fill-opacity:1;fill-rule:nonzero;stroke:none"/><path id="path20" d="M519.863 261.93c11.446 0 20.739 9.281 20.739 20.734 0 11.445-9.293 20.723-20.739 20.723-11.445 0-20.73-9.278-20.73-20.723 0-11.453 9.285-20.734 20.73-20.734" style="fill:#4cd9ff;fill-opacity:1;fill-rule:nonzero;stroke:none"/><path id="path22" d="M389.594 129.336c-1.481.383-2.996.644-4.594.652-32.676.176-47.496 13.7-47.437 26.188.066 13.398 16.457 27.562 46.71 27.562h.407c22.492-.101 42.55-11.109 47.683-26.179 3.375-9.895 14.121-15.2 24.032-11.817 9.898 3.375 15.191 14.137 11.82 24.031-10.512 30.829-44.012 51.661-83.375 51.836h-.582c-55.317 0-84.41-32.765-84.567-65.254-.136-30.039 25.344-62.363 81.321-64.082 1.476-.379 2.996-.64 4.593-.652 32.676-.176 47.493-13.7 47.43-26.191-.062-13.39-16.449-27.559-46.707-27.559h-.398c-22.496.098-42.551 11.113-47.688 26.184-3.371 9.898-14.101 15.203-24.031 11.812-9.898-3.367-15.191-14.129-11.816-24.023C312.906 21.008 346.406.176 385.766 0h.582c55.312 0 84.41 32.762 84.558 65.254.145 30.039-25.336 62.363-81.312 64.082" style="fill:#4cd9ff;fill-opacity:1;fill-rule:nonzero;stroke:none"/><path id="path24" d="M675.793 37.89c-40.211 0-72.926 32.715-72.926 72.919 0 40.207 32.715 72.918 72.926 72.918 40.207 0 72.922-32.711 72.922-72.918 0-40.203-32.715-72.918-72.922-72.918zm92.586 265.075c-10.457 0-18.938-8.477-18.938-18.938v-90.683c-19.597 17.504-45.363 28.254-73.648 28.254-61.098 0-110.797-49.7-110.797-110.789 0-61.09 49.699-110.79 110.797-110.79 28.285 0 54.051 10.743 73.648 28.25v-8.882c0-10.461 8.481-18.938 18.938-18.938 10.461 0 18.934 8.477 18.934 18.938v264.64c0 10.461-8.473 18.938-18.934 18.938" style="fill:#4cd9ff;fill-opacity:1;fill-rule:nonzero;stroke:none"/><path id="path26" d="M922.816 183.641c32.5 0 59.903-21.789 68.262-51.383H854.555c8.359 29.594 35.761 51.383 68.261 51.383zm93.684-88.817c8.63 1.77 15.13 9.403 15.13 18.555 0 59.625-48.814 108.133-108.814 108.133-59.968 0-108.75-48.461-108.796-108.043a.665.665 0 0 1-.02-.149C814 51.102 864.672.477 926.969.477c31.269 0 60.351 12.472 81.891 35.129 7.21 7.578 6.91 19.558-.67 26.765-7.57 7.2-19.553 6.914-26.768-.672-14.328-15.058-33.664-23.351-54.453-23.351-34.844 0-64.141 23.847-72.578 56.039H1012.5c1.37 0 2.7.164 4 .437" style="fill:#4cd9ff;fill-opacity:1;fill-rule:nonzero;stroke:none"/><path id="path28" d="m1149.34 265.605 67.51-.05h.01c.89 0 1.75.144 2.61.265.69-.078 1.36-.211 2.08-.211 30.18 0 54.74-20.863 54.74-46.507 0-24.368-23.53-42.739-54.74-42.739-.45 0-.88-.101-1.32-.133-.42.024-.81.122-1.23.122h-69.66zm163.88-237.082-64.21 113.321c38.54 9.715 65.16 39.699 65.16 77.258 0 46.527-41.55 84.378-92.62 84.378-.9 0-1.76-.14-2.62-.261-.68.07-1.36.207-2.06.207l-86.45.066h-.01c-5.02 0-9.84-1.992-13.39-5.543a18.91 18.91 0 0 1-5.55-13.394V19.121c0-10.46 8.48-18.937 18.94-18.937 10.45 0 18.93 8.476 18.93 18.937V138.48h58.05l72.88-128.628c3.48-6.153 9.89-9.598 16.49-9.598 3.17 0 6.37.793 9.32 2.46 9.1 5.157 12.29 16.712 7.14 25.81" style="fill:#fff;fill-opacity:1;fill-rule:nonzero;stroke:none"/><path id="path30" d="m1514.39 32.52-61.49 75.867 61.27 75.617c6.92 8.523 5.61 21.043-2.92 27.957-8.52 6.914-21.04 5.613-27.95-2.93l-55.99-69.07-55.98 69.07c-6.89 8.532-19.42 9.844-27.96 2.93-8.52-6.914-9.83-19.434-2.92-27.957l61.28-75.617-61.49-75.867c-6.91-8.536-5.61-21.055 2.92-27.961a19.783 19.783 0 0 1 12.51-4.442c5.78 0 11.52 2.52 15.45 7.363l56.19 69.344 56.2-69.344a19.84 19.84 0 0 1 15.45-7.363c4.39 0 8.83 1.453 12.51 4.442 8.53 6.906 9.83 19.425 2.92 27.96" style="fill:#fff;fill-opacity:1;fill-rule:nonzero;stroke:none"/><path id="path32" d="M1580.48 182.828c1.58 0 2.7.309 3.34.926.66.617.99 1.543.99 2.785 0 1.234-.33 2.156-.99 2.774-.64.617-1.76.925-3.34.925h-6.07v-7.41zm-16.15-20.898c-.42.41-.63.965-.63 1.648v33.145c0 .687.21 1.242.63 1.652.4.41.96.613 1.64.613h14.31c5.14 0 8.97-1.144 11.48-3.445 2.5-2.301 3.75-5.305 3.75-9.004 0-2.266-.48-4.394-1.44-6.387-.96-1.988-2.43-3.566-4.43-4.73l5.67-10.402c.27-.415.42-.895.42-1.442 0-.617-.2-1.152-.57-1.59-.38-.449-.95-.675-1.71-.675h-5.87c-1.3 0-2.29.656-2.98 1.953l-4.94 9.781h-5.25v-9.469c0-.683-.2-1.238-.62-1.648-.42-.41-.95-.617-1.64-.617h-6.18c-.68 0-1.24.207-1.64.617zm28.6-6.848c4.33 2.578 7.74 6.078 10.25 10.508 2.5 4.426 3.76 9.246 3.76 14.461 0 5.219-1.26 10.039-3.76 14.461-2.51 4.429-5.92 7.926-10.25 10.496-4.31 2.574-9.08 3.863-14.3 3.863-5.22 0-9.98-1.289-14.3-3.863-4.33-2.57-7.74-6.067-10.24-10.496-2.51-4.422-3.76-9.242-3.76-14.461 0-5.215 1.25-10.035 3.76-14.461 2.5-4.43 5.91-7.93 10.24-10.508 4.32-2.57 9.08-3.852 14.3-3.852 5.22 0 9.99 1.282 14.3 3.852zm4.28 57.031c5.67-3.324 10.16-7.82 13.48-13.48 3.33-5.668 5-11.856 5-18.582 0-6.727-1.67-12.922-5-18.582-3.32-5.66-7.81-10.156-13.48-13.481-5.66-3.336-11.85-5-18.58-5-6.73 0-12.91 1.664-18.58 5-5.66 3.325-10.15 7.821-13.48 13.481-3.34 5.66-4.99 11.855-4.99 18.582 0 6.726 1.65 12.914 4.99 18.582 3.33 5.66 7.82 10.156 13.48 13.48 5.67 3.332 11.85 4.992 18.58 4.992 6.73 0 12.92-1.66 18.58-4.992" style="fill:#fff;fill-opacity:1;fill-rule:nonzero;stroke:none"/></g></g></svg>