<svg id="Layer_1" data-name="Layer 1" xmlns="http://www.w3.org/2000/svg" viewBox="11.05 10.62 123.5 52.27" width="124px" height="53px">
  <defs>
    <style>
      .cls-1 {
        fill: white;
      }

      .cls-2 {
        fill: white;
      }
    </style>
  </defs>
  <g>
    <path class="cls-1" d="m35.97,10.63v25.34h-5.08v-16.02l-4.97,16.02h-4.79l-4.97-16.02v16.02h-5.08V10.63h6.48l5.98,19.15,5.9-19.15h6.52Z"/>
    <path class="cls-1" d="m40.22,10.63h9.9c7.2,0,10.83,5.18,10.83,12.71s-3.38,12.63-10.58,12.63h-10.15V10.63Zm5.08,4.17v16.99h4.82c3.49,0,5.69-2.99,5.69-8.46s-2.2-8.53-5.69-8.53h-4.82Z"/>
    <path class="cls-1" d="m72.43,35.97V10.63h5.11v21.17h11.34v4.18h-16.45Z"/>
    <path class="cls-1" d="m90.97,10.63h5.04v4.61h-5.04v-4.61Zm4.93,7.13v18.21h-4.82v-18.21h4.82Z"/>
    <path class="cls-1" d="m111.51,17.75h5.08l-6.88,18.21h-4.72l-6.91-18.21h5.08l4.21,12.53,4.14-12.53Z"/>
    <path class="cls-1" d="m134.51,30.85c-1.08,2.7-3.63,5.47-8.6,5.47s-8.93-3.85-8.93-9.47,3.42-9.47,8.57-9.47,8.46,3.64,8.46,9.07c0,.54,0,1.12-.11,1.76h-12.02c.07,2.34,1.87,4.14,4.03,4.14,1.44,0,3.17-.58,4.18-2.92l4.43,1.4Zm-5.62-6.12c-.14-2.02-1.3-3.31-3.35-3.31-1.94,0-3.24,1.55-3.38,3.31h6.73Z"/>
  </g>
  <g>
    <path class="cls-2" d="m11.1,49.25h4.97c2.05,0,3.29,1.1,3.29,3.12,0,.97-.75,1.83-1.24,1.98.71.23,1.63,1.07,1.63,2.32,0,2.07-1.31,3.2-3.46,3.2h-5.19v-10.63Zm4.89,2.08h-2.34v2.05h2.32c.48,0,.98-.42.98-.94,0-.6-.39-1.12-.97-1.12Zm-2.34,4.14v2.32h2.48c.68,0,1.1-.51,1.1-1.12s-.33-1.21-1.09-1.21h-2.49Zm12.59-3.23h2.55l-4.09,10.63h-2.28l1.09-3-2.93-7.62h2.55l1.57,4.86,1.54-4.86Z"/>
    <path class="cls-2" d="m125.92,49.02c.41,0,.75.33.75.74s-.34.74-.75.74-.75-.33-.75-.74.33-.74.75-.74Zm0,1.37c.35,0,.64-.29.64-.64s-.29-.63-.64-.63-.64.29-.64.63.29.64.64.64Zm-.11-.52h-.05s0,.34,0,.34h-.2v-.91h.4c.17,0,.29.12.29.28s-.12.27-.22.27c.1.12.19.24.29.35h-.23s-.28-.34-.28-.34Zm-.05-.41v.26s.19,0,.19,0c.06,0,.11-.07.11-.13s-.05-.13-.11-.13h-.19Zm-1.94-.29h-2.47s0,4.26,0,4.26h-3.51v-4.26s-2.49,0-2.49,0v10.63s2.49,0,2.49,0v-4.22h3.51v4.22s2.47,0,2.47,0v-4.22h2.85s0-2.15,0-2.15h-2.85v-4.26Zm-17.55,2.12h2.6v8.5s2.47,0,2.47,0v-8.5h2.57s0-2.12,0-2.12h-7.64s0,2.12,0,2.12Zm-4.84,2.59h-2.06v-2.59h2.06c.5,0,1.08.53,1.08,1.3s-.59,1.3-1.08,1.3Zm1.14,1.91c1.7-.46,2.41-1.96,2.41-3.24,0-1.91-1.37-3.38-3.42-3.38h-4.68s0,10.63,0,10.63h2.49s0-3.86,0-3.86h.47s3.08,3.86,3.08,3.86h2.82s-3.17-4-3.17-4Zm-11.99,4.15c3.46,0,4.62-2.82,4.62-5.46,0-2.62-1.16-5.46-4.62-5.46-3.46,0-4.62,2.84-4.62,5.46,0,2.64,1.16,5.46,4.62,5.46Zm0-2.08c-1.38,0-2.07-1.13-2.07-3.38,0-2.25.69-3.38,2.07-3.38,1.38,0,2.07,1.13,2.07,3.38s-.69,3.38-2.07,3.38Zm-12.59-8.69h-2.4s0,10.63,0,10.63h2.49s0-6.25,0-6.25l3.92,6.25h2.44s0-10.63,0-10.63h-2.49s0,6.25,0,6.25l-3.96-6.25Zm-8.07,4.72h-2.06v-2.59h2.06c.5,0,1.08.53,1.08,1.3s-.59,1.3-1.08,1.3Zm1.14,1.91c1.7-.46,2.41-1.96,2.41-3.24,0-1.91-1.37-3.38-3.42-3.38h-4.68s0,10.63,0,10.63h2.49s0-3.86,0-3.86h.47s3.08,3.86,3.08,3.86h2.82s-3.17-4-3.17-4Zm-15.27,4h7.78s0-2.16,0-2.16h-5.28v-2.21h4.47s0-2.09,0-2.09h-4.47v-2.05h5.28v-2.12s-7.78,0-7.78,0v10.63Zm-6.27-3.67l-2.24-6.96h-2.62s3.7,10.63,3.7,10.63h2.29s3.78-10.63,3.78-10.63h-2.66s-2.26,6.96-2.26,6.96Zm-5.88,1.51v2.16h-7.68v-4.22s-2.85,0-2.85,0v-2.15h2.85s0-4.26,0-4.26h7.58v2.12h-5.03v2.13s2.85,0,2.85,0v2.15h-2.85s0,2.06,0,2.06h5.14Z"/>
  </g>
</svg>