<?xml version="1.0" encoding="utf-8"?>
<svg version="1.1" id="Layer_1" xmlns="http://www.w3.org/2000/svg" xmlns:xlink="http://www.w3.org/1999/xlink" x="0px" y="0px"
	 viewBox="0 0 131.6 52.2" width="132px" height="53px" xml:space="preserve">
<path fill="white" d="M16.2,20.6H6.9l-1.6,4.8H0L9.2,0h4.7l9.2,25.3h-5.2L16.2,20.6L16.2,20.6z M8.2,16.4h6.6l-3.3-9.8L8.2,16.4
	L8.2,16.4z M40.7,19.7c-0.7,3.3-3.6,6-8.3,6c-5.4,0-8.9-3.8-8.9-9.5c0-5.6,3.5-9.5,8.9-9.5c4.7,0,7.3,2.7,8.2,6.1
	c-1.6,0.3-3.2,0.6-4.8,0.9c-0.5-2.1-2-3-3.3-3c-2.7,0-4,2.2-4,5.4c0,3.3,1.3,5.5,4,5.5c1.6,0,3-1,3.5-3
	C35.9,18.8,40.7,19.7,40.7,19.7z M59.7,19.7c-0.7,3.3-3.6,6-8.3,6c-5.4,0-8.9-3.8-8.9-9.5c0-5.6,3.5-9.5,8.9-9.5
	c4.7,0,7.3,2.7,8.2,6.1c-1.6,0.3-3.2,0.6-4.8,0.9c-0.5-2.1-2-3-3.3-3c-2.7,0-4,2.2-4,5.4c0,3.3,1.3,5.5,4,5.5c1.6,0,3-1,3.5-3
	C54.9,18.8,59.7,19.7,59.7,19.7z M62.5,7.1H67l0.4,1.8c0.7-1.1,1.7-2.1,3.8-2.1c0.6,0,1.3,0,1.9,0.1v4h-2.6c-2.2,0-3.2,1.6-3.2,4.8
	v9.7h-4.9L62.5,7.1L62.5,7.1z M91.8,20.2c-1.1,2.7-3.6,5.5-8.6,5.5c-5.2,0-8.9-3.9-8.9-9.5s3.4-9.5,8.6-9.5c5.3,0,8.5,3.6,8.5,9.1
	c0,0.5,0,1.1-0.1,1.8h-12c0.1,2.3,1.9,4.1,4,4.1c1.4,0,3.2-0.6,4.2-2.9L91.8,20.2L91.8,20.2z M86.2,14.1c-0.1-2-1.3-3.3-3.3-3.3
	c-1.9,0-3.2,1.5-3.4,3.3H86.2L86.2,14.1z M111.3,25.3h-4.5l-0.4-2c-0.7,1.1-2.8,2.3-4.9,2.3c-4.6,0-7.9-3.9-7.9-9.5
	c0-5.6,3-9.5,7.9-9.5c1.9,0,4.1,1,4.9,2.2V0h4.9V25.3L111.3,25.3z M102.5,21.7c2.4,0,3.9-1.8,3.9-5.5c0-3.7-1.5-5.4-3.9-5.4
	c-2.3,0-4,1.8-4,5.4C98.5,19.9,100.2,21.7,102.5,21.7z M122.9,25.7c-5.4,0-8.7-3.9-8.7-9.5c0-5.6,3.3-9.5,8.7-9.5
	c5.4,0,8.7,3.9,8.7,9.5S128.3,25.7,122.9,25.7z M122.9,10.8c-2.3,0-4,1.8-4,5.4c0,3.7,1.6,5.5,4,5.5c2.3,0,4-1.8,4-5.5
	C126.9,12.6,125.2,10.8,122.9,10.8z"/>
<path fill="white" d="M0,38.6h5c2.1,0,3.3,1.1,3.3,3.1c0,1-0.8,1.8-1.2,2C7.7,44,8.6,44.8,8.6,46c0,2.1-1.3,3.2-3.5,3.2H0
	C0,49.2,0,38.6,0,38.6z M4.9,40.7H2.6v2.1h2.3c0.5,0,1-0.4,1-0.9C5.9,41.2,5.5,40.7,4.9,40.7z M2.6,44.8v2.3H5
	c0.7,0,1.1-0.5,1.1-1.1S5.8,44.8,5,44.8C5,44.8,2.6,44.8,2.6,44.8z M15.1,41.6h2.6l-4.1,10.6h-2.3l1.1-3l-2.9-7.6H12l1.6,4.9
	L15.1,41.6z M114.8,38.4c0.4,0,0.8,0.3,0.8,0.7s-0.3,0.7-0.8,0.7s-0.7-0.3-0.7-0.7S114.4,38.4,114.8,38.4z M114.8,39.8
	c0.4,0,0.6-0.3,0.6-0.6c0-0.3-0.3-0.6-0.6-0.6s-0.6,0.3-0.6,0.6C114.2,39.5,114.5,39.8,114.8,39.8z M114.7,39.3L114.7,39.3l-0.1,0.3
	h-0.2v-0.9h0.4c0.2,0,0.3,0.1,0.3,0.3c0,0.2-0.1,0.3-0.2,0.3c0.1,0.1,0.2,0.2,0.3,0.4H115L114.7,39.3L114.7,39.3z M114.7,38.8v0.3
	h0.2c0.1,0,0.1-0.1,0.1-0.1c0-0.1,0-0.1-0.1-0.1L114.7,38.8L114.7,38.8z M112.7,38.5h-2.5v4.3h-3.5v-4.3h-2.5v10.6h2.5V45h3.5v4.2
	h2.5V45h2.8v-2.2h-2.8C112.7,42.8,112.7,38.5,112.7,38.5z M95.2,40.7h2.6v8.5h2.5v-8.5h2.6v-2.1h-7.6C95.2,38.5,95.2,40.7,95.2,40.7
	z M90.3,43.3h-2.1v-2.6h2.1c0.5,0,1.1,0.5,1.1,1.3C91.4,42.7,90.8,43.3,90.3,43.3z M91.5,45.2c1.7-0.5,2.4-2,2.4-3.2
	c0-1.9-1.4-3.4-3.4-3.4h-4.7v10.6h2.5v-3.9h0.5l3.1,3.9h2.8L91.5,45.2L91.5,45.2z M79.5,49.3c3.5,0,4.6-2.8,4.6-5.5
	c0-2.6-1.2-5.5-4.6-5.5c-3.5,0-4.6,2.8-4.6,5.5C74.9,46.5,76,49.3,79.5,49.3z M79.5,47.2c-1.4,0-2.1-1.1-2.1-3.4s0.7-3.4,2.1-3.4
	s2.1,1.1,2.1,3.4S80.9,47.2,79.5,47.2z M66.9,38.5h-2.4v10.6H67v-6.2l3.9,6.2h2.4V38.5h-2.5v6.2C70.8,44.8,66.9,38.5,66.9,38.5z
	 M58.8,43.3h-2.1v-2.6h2.1c0.5,0,1.1,0.5,1.1,1.3C59.9,42.7,59.3,43.3,58.8,43.3z M60,45.2c1.7-0.5,2.4-2,2.4-3.2
	c0-1.9-1.4-3.4-3.4-3.4h-4.7v10.6h2.5v-3.9h0.5l3.1,3.9h2.8L60,45.2L60,45.2z M44.7,49.2h7.8V47h-5.3v-2.2h4.5v-2.1h-4.5v-2h5.3
	v-2.1h-7.8C44.7,38.5,44.7,49.2,44.7,49.2z M38.4,45.5l-2.2-7h-2.6l3.7,10.6h2.3l3.8-10.6h-2.7L38.4,45.5L38.4,45.5z M32.5,47v2.2
	h-7.7V45H22v-2.2h2.8v-4.3h7.6v2.1h-5v2.1h2.8V45h-2.8V47L32.5,47L32.5,47z"/>
</svg>
