<?xml version="1.0" encoding="UTF-8"?>
<svg width="135px" height="170px" viewBox="0 0 135 170" version="1.1" xmlns="http://www.w3.org/2000/svg" xmlns:xlink="http://www.w3.org/1999/xlink">
    <!-- Generator: Sketch 64 (93537) - https://sketch.com -->
    <title>Custom Preset</title>
    <desc>Created with Sketch.</desc>
    <g id="Custom-Preset" stroke="none" stroke-width="1" fill="none" fill-rule="evenodd">
        <g id="ncqa-logo" fill-rule="nonzero">
            <path d="M19.9138019,115.175006 C32.1006672,127.343613 48.9226492,134.866835 67.5053365,134.866835 C86.0880239,134.866835 102.91457,127.343613 115.096871,115.175006 L19.9138019,115.175006 M67.5053365,0.168881654 C30.3080112,0.168881654 0.154648429,30.3233855 0.154648429,67.5161465 C0.154648429,71.3673328 0.484424091,75.1432071 1.10403718,78.8152419 L34.8370064,78.8152419 C33.7449933,75.3928161 33.1902982,71.8217497 33.1926924,68.2293291 C33.1926924,49.0087712 48.7754483,33.421451 67.9960062,33.421451 C87.215423,33.421451 102.79932,49.0087712 102.79932,68.2293291 C102.79932,71.9241858 102.219645,75.4775471 101.153865,78.8152419 L133.906636,78.8152419 C134.537599,75.0819372 134.856025,71.302395 134.856025,67.5161465 C134.856025,30.3233855 104.702662,0.168881654 67.5053365,0.168881654" id="Shape" fill="#3D688F"></path>
            <path d="M112.173393,115.175006 C100.405308,126.255011 84.5543959,133.053639 67.1128008,133.053639 C49.6712057,133.053639 33.8202932,126.256152 22.0533499,115.175006 L18.1884704,115.175006 C30.6297992,127.886773 47.9641317,135.794543 67.1128008,135.794543 C86.2614699,135.794543 103.596943,127.886773 116.032567,115.175006 L112.173393,115.175006" id="Path" fill="#A1B5CC"></path>
            <path d="M42.2495417,54.8979483 L52.372171,65.5055419 L52.372171,55.5392422 L54.0529999,55.5392422 L54.0529999,69.5838056 L43.9303706,58.976212 L43.9303706,69.0269526 L42.2495417,69.0269526 L42.2495417,54.8979483 M66.2353008,58.1158285 C65.272219,57.2554449 63.948552,56.7955847 62.6773752,56.7955847 C59.6557629,56.7955847 57.3473333,59.3139753 57.3473333,62.3013549 C57.3473333,65.2522194 59.6375054,67.7785977 62.6420013,67.7785977 C63.9656683,67.7785977 65.2322807,67.275376 66.2353008,66.3796186 L66.2353008,68.3674013 C65.2003302,68.9778856 63.8766631,69.3122257 62.6956327,69.3122257 C58.8490107,69.3122257 55.6665044,66.2540984 55.6665044,62.3584095 C55.6665044,58.369151 58.8672681,55.2539691 62.8382692,55.2539691 C64.0192997,55.2539691 65.2140233,55.5392422 66.2353008,56.1668429 L66.2353008,58.1158285" id="Shape" fill="#3D688F"></path>
            <path d="M78.0786973,66.063536 C79.1170913,65.1312636 79.6522635,63.5759549 79.6522635,62.2865207 C79.6522635,59.3139753 77.431698,56.8275353 74.2720136,56.8275353 C71.1020593,56.8275353 68.8826349,59.3151164 68.8826349,62.2876617 C68.8826349,65.3629054 71.3519585,67.7386594 74.2720136,67.7386594 C75.0913178,67.7386594 76.1308529,67.4899013 76.9501571,66.9718455 L73.8577971,63.9456688 L75.9517014,63.9456688 L78.0786973,66.063536 Z M79.2768442,69.3122257 L78.1129301,68.1175021 C77.0083528,68.8843161 75.5557424,69.3122257 74.2720136,69.3122257 C70.3717602,69.3122257 67.201806,66.2951777 67.201806,62.2876617 C67.201806,58.4227823 70.4025697,55.2539691 74.2720136,55.2539691 C78.1311876,55.2539691 81.3319513,58.4227823 81.3319513,62.2876617 C81.3319513,64.2001324 80.548021,66.0053403 79.224354,67.262824 L81.314835,69.3122257 L79.2768442,69.3122257" id="Shape" fill="#E32B21"></path>
            <path d="M87.969685,58.654424 L85.5711091,64.1111272 L90.3671198,64.1111272 L87.969685,58.654424 Z M84.8761839,65.6493195 L83.3379915,69.0269526 L81.5282192,69.0269526 L87.969685,54.968696 L94.4100097,69.0269526 L92.6002373,69.0269526 L91.0631861,65.6493195 L84.8761839,65.6493195" id="Shape" fill="#3D688F"></path>
            <path d="M32.7556541,87.1862947 L32.7556541,92.3040935 C32.7556541,93.7167657 33.1778582,95.0267396 34.8461351,95.0267396 C36.5121298,95.0267396 36.9366161,93.7167657 36.9366161,92.3040935 L36.9366161,87.1862947 L38.0206538,87.1862947 L38.0206538,92.669243 C38.0206538,94.5771492 36.8339178,96.0354651 34.8461351,96.0354651 C32.8583524,96.0354651 31.6773219,94.5771492 31.6773219,92.669243 L31.6773219,87.1862947 L32.7556541,87.1862947 M42.7573277,95.8517493 L41.6744312,95.8517493 L41.6744312,88.1756217 L39.6204651,88.1756217 L39.6204651,87.1862947 L44.8124349,87.1862947 L44.8124349,88.1756217 L42.7584688,88.1756217 L42.7584688,95.8517493 M47.6206629,95.8517493 L46.5377663,95.8517493 L46.5377663,87.1862947 L47.621804,87.1862947 L47.621804,95.8517493 M51.2310788,94.8669867 L53.8612964,94.8669867 L53.8612964,95.8517493 L50.1527466,95.8517493 L50.1527466,87.1862947 L51.2310788,87.1862947 L51.2310788,94.8658456 M56.5314523,95.8517493 L55.4474147,95.8517493 L55.4474147,87.1862947 L56.5314523,87.1862947 L56.5314523,95.8517493 M64.4871475,94.8669867 L64.4871475,95.8517493 L58.3366603,95.8517493 L62.7264422,88.1756217 L58.9562733,88.1756217 L58.9562733,87.1862947 L64.4871475,87.1862947 L60.0928012,94.8658456 L64.4871475,94.8658456 M69.5330574,89.1877705 L67.9914418,92.6909238 L71.0712498,92.6909238 L69.5330574,89.1877705 Z M67.5452747,93.6813918 L66.5559478,95.8517493 L65.396598,95.8517493 L69.5330574,86.8211452 L73.6695169,95.8517493 L72.5056028,95.8517493 L71.5219812,93.6813918 L67.5452747,93.6813918 M77.6370946,95.8517493 L76.5587624,95.8517493 L76.5587624,88.1756217 L74.4990909,88.1756217 L74.4990909,87.1862947 L79.6967661,87.1862947 L79.6967661,88.1756217 L77.6370946,88.1756217 L77.6370946,95.8517493 M82.5004298,95.8517493 L81.4209565,95.8517493 L81.4209565,87.1862947 L82.5004298,87.1862947 L82.5004298,95.8517493 M92.422227,91.519022 C92.422227,89.6111158 90.9958616,88.0158688 88.9635763,88.0158688 C86.9267267,88.0158688 85.5037846,89.6111158 85.5037846,91.519022 C85.5037846,93.497676 87.0864796,95.0267396 88.9635763,95.0267396 C90.8349676,95.0267396 92.4210859,93.497676 92.4210859,91.519022 L92.422227,91.519022 Z M93.5005591,91.519022 C93.5005591,94.0956083 91.4682738,96.0343241 88.9635763,96.0343241 C86.4577377,96.0343241 84.4220292,94.0944672 84.4220292,91.519022 C84.4220292,89.0405696 86.4805596,87.00372 88.9635763,87.00372 C91.445452,87.00372 93.5005591,89.0405696 93.5005591,91.519022 M95.3559751,86.7720782 L101.857919,93.5878223 L101.857919,87.1862947 L102.941956,87.1862947 L102.941956,96.2077701 L96.4377306,89.3931671 L96.4377306,95.8517493 L95.3559751,95.8517493 L95.3559751,86.7720782 M25.5519387,102.733677 L25.5291169,102.733677 L24.5181091,108.452831 L23.4044031,108.452831 L25.1730961,99.422227 L28.1467825,106.245959 L31.1250333,99.422227 L32.8937263,108.452831 L31.7788791,108.452831 L30.7678714,102.733677 L30.7450496,102.733677 L28.1467825,108.63997 L25.5519387,102.733677 M37.9887032,101.788852 L36.4505108,105.29657 L39.5314599,105.29657 L37.9887032,101.788852 Z M36.0009205,106.282474 L35.0150168,108.452831 L33.8511027,108.452831 L37.9887032,99.422227 L42.129727,108.452831 L40.9658129,108.452831 L39.9764859,106.282474 L36.0009205,106.282474 M43.6587906,99.3777244 L50.1664397,106.188904 L50.1664397,99.7919408 L51.2447719,99.7919408 L51.2447719,108.808852 L44.7405461,101.998813 L44.7405461,108.452831 L43.6587906,108.452831 L43.6587906,99.3777244 M56.9148593,101.788852 L55.3721026,105.29657 L58.4530517,105.29657 L56.9148593,101.788852 Z M54.9270766,106.282474 L53.9366085,108.452831 L52.7783999,108.452831 L56.9148593,99.422227 L61.0513187,108.452831 L59.8908279,108.452831 L58.9015009,106.282474 L54.9270766,106.282474 M70.5805801,104.089294 L70.5805801,104.431622 C70.5805801,106.81194 68.9054567,108.63997 66.4806357,108.63997 C64.0558146,108.63997 62.1034058,106.544925 62.1034058,104.14749 C62.1034058,101.65078 64.1003172,99.6059428 66.595886,99.6059428 C67.9378105,99.6059428 69.2706062,100.215286 70.121861,101.285631 L69.3641758,102.007942 C68.7445627,101.16011 67.69704,100.594129 66.6403886,100.594129 C64.7005317,100.594129 63.181738,102.168836 63.181738,104.110975 C63.181738,105.925312 64.6754277,107.650643 66.5513834,107.650643 C67.8933079,107.650643 69.3413539,106.491293 69.3858565,105.078621 L67.1447514,105.078621 L67.1447514,104.089294 L70.5805801,104.089294 M72.5649396,99.7919408 L77.2183138,99.7919408 L77.2183138,100.776703 L73.6432717,100.776703 L73.6432717,103.201524 L77.1156155,103.201524 L77.1156155,104.191993 L73.6432717,104.191993 L73.6432717,107.466927 L77.2183138,107.466927 L77.2183138,108.452831 L72.5649396,108.452831 L72.5649396,99.7919408 M80.931428,102.733677 L80.9086061,102.733677 L79.8964573,108.452831 L78.7827512,108.452831 L80.5514442,99.422227 L83.529695,106.245959 L86.5079458,99.422227 L88.2766388,108.452831 L87.1629328,108.452831 L86.1507839,102.733677 L86.1279621,102.733677 L83.529695,108.63997 L80.931428,102.733677 M90.1525945,99.7919408 L94.8071098,99.7919408 L94.8071098,100.776703 L91.2320677,100.776703 L91.2320677,103.201524 L94.7044115,103.201524 L94.7044115,104.191993 L91.2320677,104.191993 L91.2320677,107.466927 L94.8071098,107.466927 L94.8071098,108.452831 L90.1525945,108.452831 L90.1525945,99.7919408 M96.9466577,99.3777244 L103.454307,106.188904 L103.454307,99.7919408 L104.532639,99.7919408 L104.532639,108.808852 L98.0295543,101.998813 L98.0295543,108.452831 L96.9455166,108.452831 L96.9455166,99.3777244 M109.320662,108.452831 L108.236624,108.452831 L108.236624,100.776703 L106.182658,100.776703 L106.182658,99.7919408 L111.374628,99.7919408 L111.374628,100.776703 L109.320662,100.776703 L109.320662,108.452831 M35.5627411,78.6098453 C34.4092219,75.1293033 33.8209468,71.4863892 33.8202932,67.819677 C33.8202932,48.8570059 49.2478605,33.4305798 68.2093904,33.4305798 C87.1709204,33.4305798 102.598488,48.858147 102.598488,67.819677 C102.598488,71.5852814 101.978875,75.2139548 100.85604,78.6109864 L102.816436,78.6109864 C103.906446,75.1176707 104.459715,71.4790991 104.457335,67.819677 C104.457335,47.8323051 88.1967623,31.5717405 68.2093904,31.5717405 C48.2231596,31.5717405 31.962595,47.8323051 31.962595,67.819677 C31.962595,71.5727294 32.5365644,75.2002617 33.6023446,78.6109864 L35.5638821,78.6109864" id="Shape" fill="#E32B21"></path>
            <polyline id="Path" fill="#3D688F" points="0.248217994 116.386845 0.239089256 114.840665 134.432679 114.755084 134.441808 116.302405 0.248217994 116.386845"></polyline>
            <path d="M19.0351609,48.7999513 L19.0271732,48.8261964 L22.413935,51.4826592 L23.39071,48.9722562 L19.0351609,48.7999513 Z M23.8676865,52.7264498 L25.7573353,54.46091 L24.9152092,56.6312674 L15.6655154,48.2955885 L16.2896929,46.6957772 L28.6945068,46.9045971 L27.8386876,49.1069051 L25.2940519,49.0532738 L23.8676865,52.7264498 M29.3494937,32.0578458 C28.3811519,32.0642464 27.466146,32.5022945 26.853925,33.2525694 C25.5256936,34.9105764 26.2925076,37.0809339 27.8170068,38.3019026 C29.3049911,39.4966262 31.5871756,39.7054461 32.8754688,38.096506 C33.4688368,37.3570782 33.6742334,36.3095555 33.5042106,35.387553 L35.5581767,37.0318669 C35.3493568,37.9184956 35.0560961,38.7435053 34.4809856,39.4612523 C32.4874974,41.9488334 28.8645295,42.0686481 26.421451,40.1162393 C23.9110481,38.1022114 23.1145657,34.5534145 25.1913536,31.9597118 C25.7481746,31.273737 26.4686374,30.7388836 27.2863989,30.4044031 L29.3494937,32.0578458 M41.1312713,22.585639 C40.1989678,22.3206588 39.1972452,22.4805837 38.3937909,23.0226773 C36.6559074,24.2299529 36.7665934,26.5258305 37.8814405,28.1347706 C38.9689014,29.6992081 41.0947563,30.5504629 42.7847139,29.3739968 C43.565221,28.8354012 44.059314,27.8905769 44.1620123,26.9583045 L45.6591253,29.1149688 C45.2049706,29.9091691 44.6880558,30.613223 43.9349349,31.1392665 C41.3184104,32.9536032 37.8141161,32.0407294 36.03173,29.4732718 C34.1945714,26.8293611 34.4456117,23.2052521 37.1728222,21.3110389 C37.9000401,20.8115086 38.7414817,20.5034248 39.619324,20.4152815 L41.1312713,22.585639 M50.7506789,20.6332301 L51.0222589,20.5396606 C52.1759032,20.1562536 52.8765338,19.5457692 52.4394955,18.2312309 C51.9978928,16.9075639 51.0701848,16.9292447 49.9564787,17.2989586 L49.6712057,17.3970925 L50.7506789,20.6332301 Z M57.8642481,24.7114938 L55.3230356,25.5581843 L51.2721581,22.0904049 L51.2402075,22.0995337 L52.6848303,26.4368253 L50.5897849,27.1363149 L47.0067553,16.3860848 L49.8446517,15.436696 C51.9670833,14.7269366 53.7494694,15.1822324 54.5162834,17.47811 C54.9715792,18.8462797 54.672613,20.4677718 53.3124311,21.1912242 L57.8642481,24.7114938 M64.0284284,14.5352331 L64.1710649,17.0273786 L67.6833469,16.8311107 L67.7906096,18.7527101 L64.2783276,18.9478369 L64.4472093,22.0105285 L68.0941401,21.8051319 L68.2002617,23.7267312 L62.3475995,24.0519425 L61.7199988,12.7345895 L67.572661,12.4093783 L67.6787825,14.3309776 L64.0284284,14.5363742 M76.0327189,22.6301416 L76.3841753,22.710018 C79.0406381,23.3125147 80.4008201,22.0778529 80.894913,19.8938023 C81.439214,17.4906621 80.4898253,15.9661628 78.0421824,15.4093098 L77.690726,15.3294333 L76.0327189,22.6301416 Z M75.9608301,12.9616669 L79.0417792,13.6622976 C82.2368375,14.3880322 83.8332256,17.2635847 83.1200429,20.4152815 C82.4148479,23.5213346 79.6693799,25.4292409 76.5176831,24.7114938 L73.4515682,24.0154276 L75.9619712,12.9616669 M88.3439632,28.9860254 L86.3732969,27.9932752 L91.4637095,17.8695047 L93.4377991,18.863396 L88.3439632,28.9860254 M95.9436376,34.1574555 L94.2228705,32.7710284 L100.120035,25.4338052 L98.3365081,24.0028756 L99.5460659,22.5057625 L104.827041,26.7529079 L103.623189,28.251162 L101.840802,26.8202323 L95.9436376,34.1574555 M109.78851,35.0885868 L107.796163,36.5948286 L109.912889,39.3984922 L108.379261,40.557842 L106.262535,37.7541783 L103.810328,39.5993245 L106.012636,42.5148152 L104.479008,43.6730238 L100.945045,38.9934045 L109.993907,32.1696728 L113.523305,36.8447278 L111.985113,38.0040775 L109.78851,35.0885868 M109.733738,49.5576366 L109.863822,49.8919766 C110.840597,52.432048 112.618419,52.878215 114.7089,52.0760272 C117.013906,51.1928218 117.753334,49.5576366 116.854153,47.212692 L116.724069,46.878352 L109.733738,49.5576366 Z M117.731653,44.1237553 L118.859052,47.0746198 C120.035518,50.1327471 118.533841,53.0562254 115.515652,54.2155751 C112.537401,55.3566674 109.431348,54.1356987 108.273139,51.1175097 L107.149164,48.1849026 L117.731653,44.1237553" id="Shape" fill="#FFFFFF"></path>
        </g>
    </g>
</svg>